<?xml version="1.0" encoding="utf-8"?>
<!-- Generator: Adobe Illustrator 23.0.2, SVG Export Plug-In . SVG Version: 6.00 Build 0)  -->
<svg version="1.1" id="Layer_1" xmlns="http://www.w3.org/2000/svg" xmlns:xlink="http://www.w3.org/1999/xlink" x="0px" y="0px"
	 viewBox="0 0 278.72 315.52" style="enable-background:new 0 0 278.72 315.52;" xml:space="preserve">
<style type="text/css">
	.st0{fill:#3D84C5;}
</style>
<g>
	<g>
		<path class="st0" d="M111.32,16.1c6.17-3.7,11.41-6.06,15.69-9.58c11.03-9.08,20.6-8.1,32.94-0.62
			c36.63,22.18,74.21,42.78,111.48,63.9c5,2.83,7.29,6.48,7.24,12.41c-0.23,25.58-0.36,51.16,0.04,76.74
			c0.13,8.07-2.87,12.94-9.75,16.78c-33.56,18.71-66.88,37.85-100.47,56.51c-9.76,5.42-15.44,12.18-12.66,23.94
			c0.45,1.9-0.24,4.04-0.06,6.04c0.21,2.41,0.78,4.79,1.2,7.18c2.39-0.57,5.07-0.63,7.14-1.79c20.52-11.53,40.91-23.28,61.38-34.91
			c14.54-8.26,29.1-16.51,43.73-24.62c7.69-4.26,9.28-3.27,9.32,5.31c0.03,6.26-0.3,12.53,0.09,18.76c0.37,5.93-2.06,9.54-7.13,12.4
			c-34.4,19.45-68.71,39.08-103.05,58.65c-6.71,3.83-13.24,8.02-20.21,11.31c-2.54,1.2-6.74,1.42-9.09,0.11
			c-24.24-13.51-48.25-27.45-72.36-41.21c-3.81-2.18-5.09-5.33-5.07-9.6c0.07-14.72-0.06-29.44-0.15-44.16
			c-0.26-41.38-0.53-82.76-0.81-124.13c-0.01-2.02,0.09-4.07-0.18-6.06c-0.49-3.49-2.86-5.07-5.9-3.51
			c-6.03,3.09-12.18,6.21-17.5,10.32c-4.88,3.77-4.85,10.04-4.85,15.79c-0.03,42.33-0.01,84.65-0.02,126.98
			c0,2.58-0.08,5.15-0.05,7.73c0.04,4.12-1.77,5.59-5.49,3.57c-7.43-4.04-15.01-7.88-21.98-12.61c-2.43-1.65-4.56-5.67-4.58-8.63
			C-0.06,181.06,0.04,133.03,0,85c0-4.33,1.87-7.31,5.55-9.41c22.85-13,45.71-26,68.53-39.06c6.06-3.47,11.54-1.97,17.14,1.25
			c29.17,16.76,58.41,33.4,87.6,50.12c10.21,5.85,20.31,11.9,30.56,17.67c5.18,2.91,7.55,6.83,7.41,12.95
			c-0.3,13.43-0.09,26.86-0.01,40.3c0.04,6.32,1.78,7.36,7.23,4.3c5.29-2.96,10.42-6.21,15.71-9.19c3.92-2.21,5.61-5.24,5.54-9.88
			c-0.23-14.17-0.28-28.34,0.01-42.51c0.13-6.13-2.37-9.88-7.55-12.83c-38.83-22.09-77.58-44.33-116.35-66.53
			C118.54,20.55,115.78,18.8,111.32,16.1z M183.37,157.36c0-7.36-0.24-14.73,0.08-22.07c0.23-5.13-1.98-8.22-6.22-10.64
			c-24.42-13.94-48.75-28.03-73.16-41.98c-8.22-4.7-9.96-3.55-9.97,6.16c-0.01,46.91,0.68,93.83-0.37,140.72
			c-0.38,16.92,4.74,27.72,20.54,33.85c7.02,2.72,9.01,2.13,9.1-5.49c0.13-9.75,0.27-19.51-0.04-29.25
			c-0.19-5.88,1.98-9.46,7.21-12.29c15.2-8.21,30.12-16.92,45.2-25.33c5.06-2.82,8.12-6.4,7.72-12.72
			C183.03,171.37,183.37,164.35,183.37,157.36z"/>
	</g>
	<path class="st0" d="M120,198.53c0-26.73,0-51.85,0-78.66c6.45,3.51,11.56,6.18,16.57,9.02c6.19,3.51,12.37,7.05,18.42,10.79
		c2.03,1.26,4.2,2.85,5.39,4.83c7.06,11.79,1.08,32.3-11.11,38.71C140.01,188.1,130.73,192.92,120,198.53z"/>
</g>
</svg>
